<svg xmlns="http://www.w3.org/2000/svg" viewBox="0 -2 60.0 24">
  <path transform="translate(0.00, 0) scale(0.020000, -0.020000)" d="M270 -10Q165 -10 105.0 49.0Q45 108 45 210H135Q135 143 170.5 106.5Q206 70 270 70Q334 70 369.5 106.5Q405 143 405 210V648H230V730H495V210Q495 108 434.5 49.0Q374 -10 270 -10Z" fill="#0E6CCF"/>
  <path transform="translate(12.00, 0) scale(0.020000, -0.020000)" d="M255 0V273L35 730H128L273 430Q285 405 292.0 387.5Q299 370 301 362Q303 370 310.5 387.5Q318 405 330 430L472 730H565L345 273V0Z" fill="#0E6CCF"/>
  <path transform="translate(24.00, 0) scale(0.020000, -0.020000)" d="M300 410Q263 410 240.0 430.5Q217 451 217 485Q217 519 240.0 539.5Q263 560 300 560Q338 560 360.5 539.5Q383 519 383 485Q383 451 360.5 430.5Q338 -10 300 -10ZM300 -10Q263 -10 240.0 10.5Q217 31 217 65Q217 99 240.0 119.5Q263 140 300 140Q338 140 360.5 119.5Q383 99 383 65Q383 31 360.5 10.5Q338 -10 300 -10Z" fill="#0E6CCF"/>
  <path transform="translate(36.00, 0) scale(0.020000, -0.020000)" d="M75 -110 430 830H525L170 -110Z" fill="#0E6CCF"/>
  <path transform="translate(48.00, 0) scale(0.020000, -0.020000)" d="M75 -110 430 830H525L170 -110Z" fill="#0E6CCF"/>
</svg>
