<svg xmlns="http://www.w3.org/2000/svg" viewBox="0 -4 28.8 28">
  <path transform="translate(0.00, 0) scale(0.024000, -0.024000)" d="M270 -10Q165 -10 105.0 49.0Q45 108 45 210H135Q135 143 170.5 106.5Q206 70 270 70Q334 70 369.5 106.5Q405 143 405 210V648H230V730H495V210Q495 108 434.5 49.0Q374 -10 270 -10Z" fill="#0E6CCF"/>
  <path transform="translate(14.40, 0) scale(0.024000, -0.024000)" d="M255 0V273L35 730H128L273 430Q285 405 292.0 387.5Q299 370 301 362Q303 370 310.5 387.5Q318 405 330 430L472 730H565L345 273V0Z" fill="#0E6CCF"/>
</svg>
